<?xml version="1.0" encoding="utf-8"?>
<!-- Generator: Adobe Illustrator 24.1.1, SVG Export Plug-In . SVG Version: 6.00 Build 0)  -->
<svg version="1.1" id="Layer_1" xmlns="http://www.w3.org/2000/svg" xmlns:xlink="http://www.w3.org/1999/xlink" x="0px" y="0px"
	 viewBox="0 0 16 16" style="enable-background:new 0 0 16 16;" xml:space="preserve">
<style type="text/css">
	.st0{fill:#2D2F3D;}
</style>
<path class="st0" d="M6,0.3c0.1,0.1,0.2,0.3,0.2,0.4c0,0.2,0,0.3-0.1,0.4C5.5,2.2,5.2,3.4,5.2,4.6c0,4,3.3,7.3,7.3,7.3
	c0.5,0,1-0.1,1.5-0.2c0.2,0,0.3,0,0.5,0s0.3,0.2,0.4,0.3c0.1,0.1,0.1,0.3,0.1,0.5s-0.1,0.3-0.2,0.4c-0.8,1-1.8,1.7-2.9,2.3
	C10.8,15.7,9.6,16,8.3,16C3.7,16,0,12.3,0,7.7c0-3.4,2.1-6.4,5.1-7.7C5.3,0,5.4,0,5.6,0C5.8,0.1,5.9,0.2,6,0.3L6,0.3z"/>
<path class="st0" d="M10.8,3.1c0,0,0-0.1,0.1-0.1c0,0,0.1,0,0.1,0c0,0,0.1,0,0.1,0c0,0,0.1,0.1,0.1,0.1l0.4,1.2
	c0.2,0.5,0.6,0.9,1.1,1.1l1.2,0.4c0,0,0.1,0,0.1,0.1c0,0,0,0.1,0,0.1s0,0.1,0,0.1c0,0-0.1,0.1-0.1,0.1l-1.2,0.4
	C12.4,6.7,12.2,6.8,12,7c-0.2,0.2-0.3,0.4-0.4,0.7l-0.4,1.2c0,0,0,0.1-0.1,0.1c0,0-0.1,0-0.1,0c0,0-0.1,0-0.1,0c0,0-0.1-0.1-0.1-0.1
	l-0.4-1.2C10.3,7.4,10.2,7.2,10,7C9.8,6.8,9.6,6.7,9.3,6.6L8.1,6.2c0,0-0.1,0-0.1-0.1C8,6.1,8,6,8,6s0-0.1,0-0.1
	c0,0,0.1-0.1,0.1-0.1l1.2-0.4C9.6,5.3,9.8,5.2,10,5c0.2-0.2,0.3-0.4,0.4-0.7L10.8,3.1L10.8,3.1z M13.9,0.1C13.9,0.1,13.9,0,13.9,0.1
	C13.9,0,14,0,14,0c0,0,0.1,0,0.1,0c0,0,0,0,0.1,0.1l0.3,0.8c0.1,0.3,0.4,0.6,0.7,0.7l0.8,0.3c0,0,0.1,0,0.1,0.1c0,0,0,0.1,0,0.1
	s0,0.1,0,0.1c0,0,0,0-0.1,0.1l-0.8,0.3c-0.2,0.1-0.3,0.2-0.5,0.3c-0.1,0.1-0.2,0.3-0.3,0.5l-0.3,0.8c0,0,0,0.1-0.1,0.1
	c0,0-0.1,0-0.1,0c0,0-0.1,0-0.1,0c0,0,0,0-0.1-0.1l-0.3-0.8c-0.1-0.2-0.2-0.3-0.3-0.5c-0.1-0.1-0.3-0.2-0.5-0.3l-0.8-0.3
	c0,0-0.1,0-0.1-0.1c0,0,0-0.1,0-0.1s0-0.1,0-0.1c0,0,0,0,0.1-0.1l0.8-0.3c0.3-0.1,0.6-0.4,0.7-0.7L13.9,0.1L13.9,0.1z"/>
</svg>
