<?xml version="1.0" encoding="utf-8"?>
<!-- Generator: Adobe Illustrator 24.1.1, SVG Export Plug-In . SVG Version: 6.00 Build 0)  -->
<svg version="1.1" id="Layer_1" xmlns="http://www.w3.org/2000/svg" xmlns:xlink="http://www.w3.org/1999/xlink" x="0px" y="0px"
	 viewBox="0 0 16 16" style="enable-background:new 0 0 16 16;" xml:space="preserve">
<style type="text/css">
	.st0{fill:#2D2F3D;}
</style>
<path class="st0" d="M8,11c-0.8,0-1.6-0.3-2.1-0.9C5.3,9.6,5,8.8,5,8s0.3-1.6,0.9-2.1S7.2,5,8,5s1.6,0.3,2.1,0.9
	C10.7,6.4,11,7.2,11,8s-0.3,1.6-0.9,2.1C9.6,10.7,8.8,11,8,11z M8,12c1.1,0,2.1-0.4,2.8-1.2C11.6,10.1,12,9.1,12,8s-0.4-2.1-1.2-2.8
	C10.1,4.4,9.1,4,8,4S5.9,4.4,5.2,5.2C4.4,5.9,4,6.9,4,8s0.4,2.1,1.2,2.8C5.9,11.6,6.9,12,8,12L8,12z M8,0c0.1,0,0.3,0.1,0.4,0.1
	c0.1,0.1,0.1,0.2,0.1,0.4v2c0,0.1-0.1,0.3-0.1,0.4C8.3,2.9,8.1,3,8,3C7.9,3,7.7,2.9,7.6,2.9C7.6,2.8,7.5,2.6,7.5,2.5v-2
	c0-0.1,0.1-0.3,0.1-0.4C7.7,0.1,7.9,0,8,0L8,0z M8,13c0.1,0,0.3,0.1,0.4,0.1c0.1,0.1,0.1,0.2,0.1,0.4v2c0,0.1-0.1,0.3-0.1,0.4
	C8.3,15.9,8.1,16,8,16c-0.1,0-0.3-0.1-0.4-0.1c-0.1-0.1-0.1-0.2-0.1-0.4v-2c0-0.1,0.1-0.3,0.1-0.4C7.7,13.1,7.9,13,8,13L8,13z M16,8
	c0,0.1-0.1,0.3-0.1,0.4c-0.1,0.1-0.2,0.1-0.4,0.1h-2c-0.1,0-0.3-0.1-0.4-0.1C13.1,8.3,13,8.1,13,8c0-0.1,0.1-0.3,0.1-0.4
	c0.1-0.1,0.2-0.1,0.4-0.1h2c0.1,0,0.3,0.1,0.4,0.1C15.9,7.7,16,7.9,16,8z M3,8c0,0.1-0.1,0.3-0.1,0.4C2.8,8.4,2.6,8.5,2.5,8.5h-2
	c-0.1,0-0.3-0.1-0.4-0.1C0.1,8.3,0,8.1,0,8c0-0.1,0.1-0.3,0.1-0.4c0.1-0.1,0.2-0.1,0.4-0.1h2c0.1,0,0.3,0.1,0.4,0.1
	C2.9,7.7,3,7.9,3,8z M13.7,2.3c0.1,0.1,0.1,0.2,0.1,0.4S13.8,3,13.7,3l-1.4,1.4c0,0-0.1,0.1-0.2,0.1c-0.1,0-0.1,0-0.2,0
	c-0.1,0-0.3-0.1-0.4-0.1c0,0-0.1-0.1-0.1-0.2c0-0.1,0-0.1,0-0.2c0-0.1,0.1-0.3,0.1-0.4l1.4-1.4c0.1-0.1,0.2-0.1,0.4-0.1
	S13.6,2.2,13.7,2.3L13.7,2.3z M4.5,11.5c0.1,0.1,0.1,0.2,0.1,0.4c0,0.1-0.1,0.3-0.1,0.4L3,13.7c-0.1,0.1-0.2,0.1-0.4,0.1
	c-0.1,0-0.3-0.1-0.3-0.1s-0.1-0.2-0.1-0.3c0-0.1,0-0.3,0.1-0.4l1.4-1.4c0.1-0.1,0.2-0.1,0.4-0.1C4.2,11.4,4.4,11.4,4.5,11.5
	L4.5,11.5z M13.7,13.7c-0.1,0.1-0.2,0.1-0.4,0.1s-0.3-0.1-0.4-0.1l-1.4-1.4c-0.1-0.1-0.1-0.2-0.1-0.4c0-0.1,0.1-0.3,0.1-0.3
	s0.2-0.1,0.3-0.1c0.1,0,0.3,0,0.4,0.1l1.4,1.4c0.1,0.1,0.1,0.2,0.1,0.4S13.8,13.6,13.7,13.7z M4.5,4.5C4.4,4.6,4.2,4.6,4.1,4.6
	C4,4.6,3.9,4.6,3.8,4.5L2.3,3c0,0-0.1-0.1-0.1-0.2c0-0.1,0-0.1,0-0.2c0-0.1,0-0.1,0-0.2c0-0.1,0.1-0.1,0.1-0.2c0,0,0.1-0.1,0.2-0.1
	c0.1,0,0.1,0,0.2,0c0.1,0,0.1,0,0.2,0C2.9,2.3,3,2.3,3,2.3l1.4,1.4c0,0,0.1,0.1,0.1,0.2c0,0.1,0,0.1,0,0.2s0,0.1,0,0.2
	C4.5,4.4,4.5,4.4,4.5,4.5L4.5,4.5z"/>
</svg>
